<?xml version="1.0" encoding="utf-8"?>
<!-- Generator: Adobe Illustrator 18.1.1, SVG Export Plug-In . SVG Version: 6.00 Build 0)  -->
<!DOCTYPE svg PUBLIC "-//W3C//DTD SVG 1.1//EN" "http://www.w3.org/Graphics/SVG/1.1/DTD/svg11.dtd">
<svg version="1.1" id="Layer_1" xmlns="http://www.w3.org/2000/svg" xmlns:xlink="http://www.w3.org/1999/xlink" x="0px" y="0px"
	 viewBox="0 0 658 217" enable-background="new 0 0 658 217" xml:space="preserve">
<g>
	<g>
		<g>
			<g>
				<polygon points="39.1,57.8 61.3,57.8 61.3,138.7 102.5,138.7 102.5,159.2 39.1,159.2 				"/>
				<g>
					<path d="M112.3,90.5h21.4v68.7h-21.4V90.5z M123,56.3c6.8,0,12.4,5.5,12.4,12.4c0,6.8-5.5,12.4-12.4,12.4
						c-6.8,0-12.4-5.5-12.4-12.4C110.6,61.8,116.1,56.3,123,56.3"/>
				</g>
				<polygon points="222.9,57.8 244.2,57.8 244.2,118.4 268.4,90.4 294.6,90.4 266.6,122.2 294,159.2 267.2,159.2 244.5,125.2 
					244.2,125.2 244.2,159.2 222.9,159.2 				"/>
				<path d="M145.4,90.5h20.5v9.4h0.3c2.8-5.4,9.8-11.1,20.2-11.1c21.6,0,25.6,14.2,25.6,32.7v37.7h-21.4v-33.4
					c0-8-0.1-18.2-11.1-18.2c-11.1,0-12.8,8.7-12.8,17.6v34h-21.4V90.5z"/>
				<path d="M339.5,116.8c0.1-7.1-5.4-13.1-13.1-13.1c-9.4,0-14.5,6.4-15.1,13.1H339.5z M357.6,147.3c-6.8,8.7-18.1,13.7-29.2,13.7
					c-21.3,0-38.4-14.2-38.4-36.3c0-22.1,17.1-36.3,38.4-36.3c19.9,0,32.5,14.2,32.5,36.3v6.7h-49.5c1.7,8.1,7.8,13.4,16.1,13.4
					c7,0,11.7-3.6,15.2-8.4L357.6,147.3z"/>
				<path d="M405.3,107.1c-10.7,0-17.1,7.1-17.1,17.5c0,10.4,6.4,17.5,17.1,17.5c10.7,0,17.1-7.1,17.1-17.5
					C422.4,114.2,416,107.1,405.3,107.1 M442.1,159.2h-19.6v-9.1h-0.3c-3.3,5-11.5,10.8-21.2,10.8c-20.5,0-34-14.8-34-35.7
					c0-19.2,12-36.9,31.6-36.9c8.8,0,17.1,2.4,21.9,9.1h0.3V57.8h21.4V159.2z"/>
			</g>
			<path fill="#5B5B5B" d="M596.8,36.5H474c-5.9,0-10.6,4.6-10.6,10.4v123.2c0,5.7,4.8,10.4,10.6,10.4h122.7
				c5.9,0,10.7-4.7,10.7-10.4V46.9C607.4,41.1,602.6,36.5,596.8,36.5z"/>
			<path fill="#FFFFFF" d="M484.8,90.5h21.4v68.7h-21.4V90.5z M495.4,56.3c6.8,0,12.4,5.5,12.4,12.4c0,6.8-5.5,12.4-12.4,12.4
				c-6.8,0-12.4-5.5-12.4-12.4C483.1,61.9,488.6,56.3,495.4,56.3"/>
			<path fill="#FFFFFF" d="M519.5,90.5H540v9.4h0.3c2.9-5.4,9.8-11.1,20.2-11.1c21.6,0,25.6,14.2,25.6,32.7v37.7h-21.3v-33.4
				c0-8-0.1-18.2-11.1-18.2c-11.1,0-12.8,8.7-12.8,17.6v34h-21.3V90.5z"/>
		</g>
	</g>
</g>
<g>
	<polygon fill="#5B5B5B" points="610.9,151.5 613.4,151.5 613.4,159.2 614.8,159.2 614.8,151.5 617.2,151.5 617.2,150.1 
		610.9,150.1 	"/>
	<polygon fill="#5B5B5B" points="626,150.1 623.3,156.8 620.7,150.1 618.8,150.1 618.8,159.2 620.1,159.2 620.1,152.3 622.9,159.2 
		623.8,159.2 626.5,152.3 626.5,159.2 627.9,159.2 627.9,150.1 	"/>
</g>
</svg>
