<?xml version="1.0" encoding="utf-8"?>
<!-- Generator: Adobe Illustrator 18.1.1, SVG Export Plug-In . SVG Version: 6.00 Build 0)  -->
<!DOCTYPE svg PUBLIC "-//W3C//DTD SVG 1.1//EN" "http://www.w3.org/Graphics/SVG/1.1/DTD/svg11.dtd">
<svg version="1.1" id="Layer_3" xmlns="http://www.w3.org/2000/svg" xmlns:xlink="http://www.w3.org/1999/xlink" x="0px" y="0px"
	 viewBox="0 0 658 217" enable-background="new 0 0 658 217" xml:space="preserve">
<g>
	<path fill-rule="evenodd" clip-rule="evenodd" fill="#5E5E5E" d="M342.2,43.6c6.2-7.7,10.7-18.4,9.6-29.1
		c-9.3,0.3-20.3,6.1-26.9,13.9c-5.9,6.7-11.1,17.8-9.6,28.2C325.3,57.2,335.7,51.4,342.2,43.6z"/>
	<path fill-rule="evenodd" clip-rule="evenodd" fill="#5E5E5E" d="M369,128.3H242.8l0,0h126V128c-2.9-5.8-4.2-14.9-3.1-22.3v-0.3h0
		c1.2-9.6,7.4-19.5,12.3-23.1c0.1,0,0.1-0.1,0.2-0.1v0h0c1.1-1.2,4.2-3.7,6.4-5.3C376.8,65.4,364,59.2,351,59
		c-13.2-1.1-26.8,8.3-34.2,8.1c-7.1,0.2-17.9-8.3-29.2-7.8l-0.1,0c-0.3,0-2.3,0.1-2.3,0.1c-15.1,0.4-28.4,9.2-36,22.7v0h0v0
		c-3,4.8-6.6,16.1-7.1,23.3v0.4c-0.7,4.5,0,16.6,0.8,22.4c0,0.1,0,0.2,0,0.3l0,0c0.6,5.8,3.6,17,5.8,22.5v0.1h0
		c2.1,6.1,8,17.4,11.9,23.2v0h0c7.7,11.1,16.8,23.5,28.8,23c11.6-0.4,15.8-7.7,29.8-7.6c13.9-0.1,17.8,7.2,30,7.3
		c12.4-0.5,20.2-11.6,27.9-22.7c3.8-5.7,9.7-16.7,11.8-23.2h0c0.2-0.7,0.6-1.8,0.8-2.5C381.4,146.2,372.2,135.4,369,128.3z"/>
</g>
</svg>
