<?xml version="1.0" encoding="utf-8"?>
<!-- Generator: Adobe Illustrator 18.1.1, SVG Export Plug-In . SVG Version: 6.00 Build 0)  -->
<!DOCTYPE svg PUBLIC "-//W3C//DTD SVG 1.1//EN" "http://www.w3.org/Graphics/SVG/1.1/DTD/svg11.dtd">
<svg version="1.1" id="Layer_3" xmlns="http://www.w3.org/2000/svg" xmlns:xlink="http://www.w3.org/1999/xlink" x="0px" y="0px"
	 viewBox="0 0 658 217" enable-background="new 0 0 658 217" xml:space="preserve">
<path fill="#707070" d="M604.2,83.6c3.7,0,6.7-3,6.7-6.6c0-3.6-3-6.6-6.7-6.6c-3.7,0-6.7,3-6.7,6.6
	C597.5,80.6,600.5,83.6,604.2,83.6 M599.1,77c0-3,2.4-5.2,5-5.2c3,0,5.4,2.2,5.4,5.2c0,2.7-2.4,5.2-5.4,5.2
	C601.5,82.2,599.1,79.7,599.1,77 M604.2,76.4c0.3,0,1,0,1.3-0.5v-0.5c0-0.5-0.3-0.8-0.7-1.1h-1.3h-0.3v2.2H604.2z M603.5,73.2h2
	c1.3,0.6,1.3,1.6,1.3,2.2v0.5c0,0.3-0.3,0.8-1,1.4h-0.3l2,3.3h-1.7l-1.7-3h-1v3h-1.3v-7.4H603.5z"/>
<path fill="#707070" d="M279.7,121.8h36.2l-19.1-30.7L262,146.4h-16.1l42.5-66.6c1.7-2.7,5-4.1,8.4-4.1c3.4,0,6.4,1.4,8.4,4.1
	l42.6,66.6h-16.1l-7.4-12.3h-36.5L279.7,121.8z M445.2,134.1V76.3h-13.7v63.6c0,1.6,1,3.3,2,4.7c1.3,1.4,3.4,1.9,5,1.9h61.6l8-12.3
	H445.2z M221.8,123.7c13.1,0,23.8-10.4,23.8-23.6c0-13.2-10.7-23.8-23.8-23.8h-59v70.2h13.4V88.6h44.6c6.4,0,11.4,5.2,11.4,11.5
	c0,6.3-5,11.2-11.4,11.2h-37.9l40.2,35.1h19.4l-27.1-22.7H221.8z M79.8,146.4c-19.4,0-35.2-15.6-35.2-35.1
	c0-19.5,15.7-35.1,35.2-35.1h40.5c19.4,0,35.2,15.6,35.2,35.1c0,19.5-15.7,35.1-35.2,35.1H79.8z M119.6,134.1
	c12.4,0,22.8-10.1,22.8-22.8c0-12.6-10.4-22.8-22.8-22.8H80.4c-12.4,0-22.8,10.1-22.8,22.8c0,12.6,10.4,22.8,22.8,22.8H119.6z
	 M375.9,146.4c-19.4,0-35.2-15.6-35.2-35.1c0-19.5,15.7-35.1,35.2-35.1h48.6l-8,12.3h-39.5c-12.7,0-22.8,10.1-22.8,22.8
	c0,12.6,10.1,22.8,22.8,22.8h48.6l-8,12.3H375.9z M541,134.1c-10.4,0-19.1-6.9-21.8-16.4h57.6l8-12.3h-65.7
	c2.7-9.6,11.4-16.7,21.8-16.7h39.5l8-12.3H540c-19.4,0-34.8,15.6-34.8,35.1c0,19.5,15.4,35.1,34.8,35.1h41.9l7.7-12.3H541z"/>
</svg>
