<?xml version="1.0" encoding="utf-8"?>
<!-- Generator: Adobe Illustrator 18.1.1, SVG Export Plug-In . SVG Version: 6.00 Build 0)  -->
<!DOCTYPE svg PUBLIC "-//W3C//DTD SVG 1.1//EN" "http://www.w3.org/Graphics/SVG/1.1/DTD/svg11.dtd">
<svg version="1.1" id="Layer_3" xmlns="http://www.w3.org/2000/svg" xmlns:xlink="http://www.w3.org/1999/xlink" x="0px" y="0px"
	 viewBox="0 0 658 217" enable-background="new 0 0 658 217" xml:space="preserve">
<path fill="#9D9D9D" d="M403.4,62.3c-5.9,2.6-12.2,4.4-18.8,5.2c6.8-4.1,12-10.5,14.4-18.1c-6.3,3.8-13.4,6.5-20.8,8
	c-6-6.4-14.5-10.4-23.9-10.4c-18.1,0-32.8,14.7-32.8,32.8c0,2.6,0.3,5.1,0.8,7.5c-27.3-1.4-51.4-14.4-67.6-34.3
	c-2.8,4.8-4.4,10.5-4.4,16.5c0,11.4,5.8,21.4,14.6,27.3c-5.4-0.2-10.4-1.6-14.9-4.1c0,0.1,0,0.3,0,0.4c0,15.9,11.3,29.1,26.3,32.2
	c-2.8,0.7-5.6,1.2-8.6,1.2c-2.1,0-4.2-0.2-6.2-0.6c4.2,13,16.3,22.5,30.6,22.8c-11.2,8.8-25.4,14-40.7,14c-2.6,0-5.3-0.2-7.8-0.5
	c14.5,9.3,31.7,14.7,50.3,14.7c60.3,0,93.3-50,93.3-93.3c0-1.4,0-2.8-0.1-4.2C393.5,74.6,399,68.8,403.4,62.3z"/>
</svg>
