<?xml version="1.0" encoding="utf-8"?>
<!-- Generator: Adobe Illustrator 18.1.1, SVG Export Plug-In . SVG Version: 6.00 Build 0)  -->
<!DOCTYPE svg PUBLIC "-//W3C//DTD SVG 1.1//EN" "http://www.w3.org/Graphics/SVG/1.1/DTD/svg11.dtd">
<svg version="1.1" id="Layer_3" xmlns="http://www.w3.org/2000/svg" xmlns:xlink="http://www.w3.org/1999/xlink" x="0px" y="0px"
	 viewBox="0 0 658 217" enable-background="new 0 0 658 217" xml:space="preserve">
<g>
	<path fill-rule="evenodd" clip-rule="evenodd" fill="#060606" d="M263,110.2h-22.8v2.6h6.5v59.1c0,0,0.9,8.9-6.5,8.9
		c-7.4,0-6.6-12.3-6.6-13.5c0-1.2,0-120.9,0-120.9s0.4-10.1,5.7-10.1c5.1,0,11.8,13.8,14.1,40.4v4.5h2.6V35h-2.6v3.9
		c-0.3,0.2-0.8,0.4-1.3,0.4c-1.1,0-5.7-5.5-12.4-5.5c-6.7,0-16.3,3.4-16.3,17.1c0,13.7,0,110.4,0,110.4s-1.5,22,16.8,22
		c0,0,5.5,0.4,11.5-4.6c0,0,3.4-1.6,3.4,3.4h2.8v-69.2h5.2V110.2L263,110.2z"/>
	<path fill-rule="evenodd" clip-rule="evenodd" fill="#060606" d="M346.5,179.3L330.8,36.2h-9.3c0,0-14.2,135.9-14.2,137.5
		c0,1.4-0.9,5.1-5.6,5.7h-1.5v0.1c0,0,0,0-0.1,0h0.1v2.5h16.2v-2.6h-1.2c-2.2-0.1-5.1-1.6-5.1-5.9l5.3-51.3h13.7l6.1,57.2h-5.8v2.6
		h22.8v-2.6H346.5L346.5,179.3z"/>
	<polygon fill-rule="evenodd" clip-rule="evenodd" fill="#FFFFFF" points="315.7,119.1 322.3,57.5 328.9,119.1 315.7,119.1 	"/>
	<path fill-rule="evenodd" clip-rule="evenodd" fill="#060606" d="M412.1,36.1l-22.7,0v2.6h5.7v140.7h-5.3v2.6h24.9v-2.6h-8.3v-56.9
		h9.9c13.9,0,14.4-13.1,14.4-13.1s0-43.9,0-58.6C430.7,36.2,412.1,36.1,412.1,36.1L412.1,36.1z"/>
	<path fill-rule="evenodd" clip-rule="evenodd" fill="#FFFFFF" d="M419.9,111.3c0,8-5.9,8.1-5.9,8.1h-7.6V38.9c1.3,0,3.1,0,5.7,0
		c6.8,0,7.8,9.2,7.8,9.2S419.9,103.3,419.9,111.3L419.9,111.3z"/>
</g>
</svg>
