<?xml version="1.0" encoding="utf-8"?>
<!-- Generator: Adobe Illustrator 18.1.1, SVG Export Plug-In . SVG Version: 6.00 Build 0)  -->
<!DOCTYPE svg PUBLIC "-//W3C//DTD SVG 1.1//EN" "http://www.w3.org/Graphics/SVG/1.1/DTD/svg11.dtd">
<svg version="1.1" id="Layer_3" xmlns="http://www.w3.org/2000/svg" xmlns:xlink="http://www.w3.org/1999/xlink" x="0px" y="0px"
	 viewBox="0 0 658 217" enable-background="new 0 0 658 217" xml:space="preserve">
<g id="_x23_ffffffff">
	<path fill="#FFFFFF" d="M279.6,107.3c6.4-21,12.8-41.9,19.2-62.8c4,13.5,8,27.1,12,40.6c1,2.9,1.6,5.9,2.7,8.7
		c3.9-12.9,7.7-25.9,11.6-38.9c1.1-3.4,1.9-6.9,3.1-10.2c6.4,20.8,12.8,41.7,19.1,62.6c-1.2,0-2.3,0-3.5,0c-1.2-5.1-2.8-10.3-5-15.1
		c-1.4-2.8-3.1-5.6-5.8-7.3c-2.6-1.7-6.1-2.1-8.8-0.6c-1.6,0.8-2.8,2.1-3.9,3.3c-3.1,3.5-4.8,7.9-6.8,12c-2-3.8-3.5-8-6.3-11.4
		c-1.6-2-3.5-3.9-6-4.6c-2.8-0.8-5.9,0.1-8.2,1.9c-2.4,1.9-4,4.7-5.3,7.4c-2.1,4.6-3.4,9.4-4.7,14.3
		C281.9,107.3,280.7,107.3,279.6,107.3z"/>
</g>
<g id="_x23_01bbd2ff">
	<path fill="#8A8A8A" d="M309.2,31.9c10.1-0.8,20.5,1.4,29.3,6.5c9.8,5.6,17.6,14.6,21.8,25.1c5.1,12.8,4.7,27.8-1.3,40.3
		c-3.6,7.6-9.1,14.3-15.9,19.2c-8.6,6.3-19.3,9.8-29.9,9.6c-10.9,0-21.7-3.7-30.3-10.3c-9-6.8-15.5-16.7-18.3-27.6
		c-2.7-10.6-1.9-22.2,2.4-32.3c4-9.5,11-17.6,19.7-23.1C293.5,35.2,301.3,32.6,309.2,31.9 M279.6,107.3c1.1,0,2.3,0,3.4,0.1
		c1.3-4.8,2.7-9.7,4.7-14.3c1.3-2.8,2.9-5.5,5.3-7.4c2.3-1.8,5.3-2.7,8.2-1.9c2.5,0.7,4.4,2.7,6,4.6c2.8,3.4,4.3,7.5,6.3,11.4
		c2-4.1,3.7-8.5,6.8-12c1.2-1.3,2.4-2.6,3.9-3.3c2.7-1.5,6.2-1.1,8.8,0.6c2.7,1.7,4.5,4.5,5.8,7.3c2.3,4.8,3.8,9.9,5,15.1
		c1.2,0,2.3,0,3.5,0c-6.3-20.9-12.7-41.7-19.1-62.6c-1.2,3.3-2.1,6.8-3.1,10.2c-3.9,13-7.6,25.9-11.6,38.9c-1.2-2.8-1.8-5.8-2.7-8.7
		c-4-13.5-8-27.1-12-40.6C292.4,65.4,286,86.3,279.6,107.3z"/>
</g>
<g id="_x23_56565aff">
	<path fill="#585858" d="M287.4,148.3c1.3,0,2.6,0,3.8,0c0.1,3.2,0,6.3,0,9.4c1.8,0,3.6,0,5.4,0c-0.3,1.1-0.6,2.2-1,3.3
		c-1.5,0-3,0-4.4,0c0,5.6,0,11.2,0,16.8c0,0.8,0.2,1.9,1.1,2.2c1.2,0.4,2.5,0.2,3.7,0.3c0,1.1,0,2.1,0,3.2c-2.2,0-4.6,0.4-6.6-0.8
		c-1.4-0.8-2-2.6-2-4.1c0-5.8,0-11.7,0-17.5c-1.8,0-3.6,0-5.4,0c0.3-1.1,0.6-2.2,0.9-3.3c1.5,0,3,0,4.5,0
		C287.4,154.6,287.4,151.4,287.4,148.3z"/>
	<path fill="#585858" d="M383.3,148.3c1.3,0,2.6,0,3.9,0c0,11.6,0,23.1,0,34.7c-1.3,0-2.6,0-3.9,0
		C383.3,171.4,383.3,159.9,383.3,148.3z"/>
	<path fill="#585858" d="M221.4,157.4c2.4-0.4,5-0.2,7.1,1.1c1.1,0.6,1.8,1.6,2.5,2.6c1.8-1.8,4-3.4,6.6-3.7c2.7-0.3,5.7,0,7.7,2
		c1.8,1.7,2.5,4.3,2.5,6.8c0,5.6,0,11.2,0,16.9c-1.3,0-2.6,0-3.9,0c0-5.6,0-11.3,0-16.9c0.1-2.1-1.2-4.3-3.2-4.9
		c-3.1-1.1-6.5,0.7-8.5,3.1c-0.2,0.8,0,1.7-0.1,2.5c0,5.4,0,10.8,0,16.2c-1.3,0-2.5,0-3.8,0c0-5.3,0-10.5,0-15.8
		c0-1.6-0.2-3.4-1.3-4.7c-1-1.1-2.5-1.6-4-1.6c-2.4,0.1-4.7,1.4-6.2,3.2c-0.2,6.3,0,12.6-0.1,18.9c-1.3,0-2.6,0-3.9,0
		c0-8.4,0-16.8,0-25.2c1.3-0.1,2.6-0.1,3.9,0c0,0.6,0,1.3,0,1.9C218.1,158.7,219.6,157.7,221.4,157.4z"/>
	<path fill="#585858" d="M265.1,157.2c3.6-0.5,7.5,0.5,10.3,3c4.7,3.9,5.7,11.2,3,16.5c-1.6,3.2-4.6,5.6-8,6.4
		c-4.8,1.3-10.3-0.2-13.4-4.1c-4.1-4.9-4-12.7,0.1-17.5C259,159.2,261.9,157.6,265.1,157.2 M265.1,160.8c-1.4,0.2-2.7,0.8-3.8,1.7
		c-4.6,3.6-4.7,11.4-0.5,15.3c3.2,3,8.6,3,11.8,0.1c4.2-3.7,4.3-11.1,0.2-15C270.8,161,267.8,160.3,265.1,160.8z"/>
	<path fill="#585858" d="M310.6,157.4c3.8-0.8,7.9,0,11,2.4c4.8,3.6,6.1,10.6,3.8,16c-1.3,3.1-3.9,5.6-7,6.8
		c-4.9,2-11.1,0.7-14.6-3.3c-4.3-4.9-4.4-13-0.1-17.9C305.5,159.4,307.9,158,310.6,157.4 M311.6,160.8c-1.3,0.3-2.6,0.9-3.7,1.7
		c-4.6,3.8-4.6,11.9,0.1,15.7c3.2,2.6,8.4,2.5,11.5-0.4c4.2-3.8,4.2-11.3-0.1-15.1C317.2,160.9,314.3,160.3,311.6,160.8z"/>
	<path fill="#585858" d="M362.6,157.2c3.9-0.5,8,0.7,10.8,3.5c3.6,3.4,4.6,8.8,3.4,13.5c-0.9,3.2-3.1,6.1-6.1,7.7
		c-5,2.8-11.8,2-15.7-2.2c-4.6-4.6-4.9-12.5-1-17.7C356,159.4,359.2,157.6,362.6,157.2 M362.6,160.8c-1.4,0.2-2.7,0.8-3.8,1.7
		c-4.7,3.7-4.8,11.9-0.1,15.7c3.2,2.7,8.4,2.6,11.5-0.2c4.2-3.8,4.3-11.3,0.1-15.1C368.2,161,365.3,160.3,362.6,160.8z"/>
	<path fill="#585858" d="M336.7,161c2.7-3.7,8.1-4.7,12.1-2.8c-0.3,1.2-0.6,2.5-1,3.7c-2-0.7-4.3-1.2-6.3-0.2
		c-2.6,1.1-5,3.5-4.8,6.5c0,4.9,0,9.9,0,14.8c-1.3,0-2.6,0-3.9,0c0-8.4,0-16.8,0-25.3c1.3,0,2.6,0,3.9,0
		C336.7,158.8,336.7,159.9,336.7,161z"/>
	<path fill="#585858" d="M396.4,157.7c2.9,0,5.9,0,8.8,0c2.5,0,5.1,0.7,6.8,2.7c1.6,1.7,2.2,4.1,2.2,6.4c0,5.4,0,10.8,0,16.2
		c-1.3,0-2.6,0-3.9,0c0-1,0-2.1,0-3.1c-3.5,4.1-10.4,5-14.7,1.6c-3.9-3-4.2-9.7-0.3-12.9c1.9-1.5,4.3-2.1,6.7-2.1c2.8,0,5.5,0,8.3,0
		c-0.1-1.3-0.1-2.6-0.9-3.7c-0.8-1.2-2.3-1.7-3.6-1.7c-2.8-0.1-5.7,0-8.5-0.1C397.1,159.9,396.7,158.9,396.4,157.7 M397.2,172.2
		c-1.4,2.3-0.8,5.6,1.5,7.1c2.8,1.8,6.8,1.1,9.1-1.3c2.1-2,2.8-5,2.7-7.8c-2.7,0-5.5,0-8.2,0C400.3,170.2,398.3,170.6,397.2,172.2z"
		/>
</g>
</svg>
