<?xml version="1.0" encoding="utf-8"?>
<!-- Generator: Adobe Illustrator 18.1.1, SVG Export Plug-In . SVG Version: 6.00 Build 0)  -->
<!DOCTYPE svg PUBLIC "-//W3C//DTD SVG 1.1//EN" "http://www.w3.org/Graphics/SVG/1.1/DTD/svg11.dtd">
<svg version="1.1" id="Layer_2" xmlns="http://www.w3.org/2000/svg" xmlns:xlink="http://www.w3.org/1999/xlink" x="0px" y="0px"
	 viewBox="0 0 658 217" enable-background="new 0 0 658 217" xml:space="preserve">
<g>
	<path fill="#101519" d="M348.8,88.8H337v27.3c0,7-2.9,12.6-11.4,12.6c-8.4,0.1-10.8-5.7-10.8-13v-27H303v29.9
		c0,8.7,3.1,21,19.3,21.1c8.9,0.1,13.3-4.2,15.4-8.1v6.6h11.1V88.8z"/>
	<path fill="#101519" d="M353.5,138.3h11.8V111c0-6.9,2.9-12.5,11.3-12.6c8.3,0,10.7,5.7,10.7,13.1v26.9h11.8v-29.8
		c0-8.7-3.1-21.1-19.2-21.2c-8.8-0.1-13.3,4.2-15.4,8.1c0.1-2.3,0.1-4.4,0.1-6.6h-11.1V138.3z"/>
	<path fill="#101519" d="M403.6,82.1h11.8V71.6h-11.8V82.1z M403.6,138.3h11.8V88.8h-11.8V138.3z"/>
	<path fill="#101519" d="M427.8,138.3h11.8V97.9h8.5l-3.5-9.1h-5V71.6h-11.8v17.2h-8.2v9.1h8.2V138.3z"/>
	<path fill="#101519" d="M459.5,155.6h12.6l26.1-66.8h-12.6l-11.9,32.9l-12.1-32.9h-12.6l18.7,47.6L459.5,155.6z"/>
	<path fill="#101519" d="M280,100.5l-13.2-48.9l-49.1,13.1l-7.3,12.8l-14.7-0.1l-35.9,35.8l35.9,35.8h0l14.7-0.1l7.3,12.8l49.1,13.1
		l13.2-48.9l-7.5-12.7L280,100.5z M249.3,69.9l-21.6,37.2h-43.1l27.1-27.6L249.3,69.9z M227.7,119.2l21.6,37.2l-37.5-9.6l-27.1-27.6
		H227.7z M238.2,113.1l21.6-37.2l10.4,37.2l-10.4,37.2L238.2,113.1z"/>
</g>
</svg>
