<?xml version="1.0" encoding="utf-8"?>
<!-- Generator: Adobe Illustrator 18.1.1, SVG Export Plug-In . SVG Version: 6.00 Build 0)  -->
<!DOCTYPE svg PUBLIC "-//W3C//DTD SVG 1.1//EN" "http://www.w3.org/Graphics/SVG/1.1/DTD/svg11.dtd">
<svg version="1.1" id="Layer_2" xmlns="http://www.w3.org/2000/svg" xmlns:xlink="http://www.w3.org/1999/xlink" x="0px" y="0px"
	 viewBox="0 0 658 217" enable-background="new 0 0 658 217" xml:space="preserve">
<g>
	<linearGradient id="SVGID_1_" gradientUnits="userSpaceOnUse" x1="81.1777" y1="73.4451" x2="81.1777" y2="143.9276">
		<stop  offset="0" style="stop-color:#828282"/>
		<stop  offset="0.967" style="stop-color:#686868"/>
	</linearGradient>
	<path fill-rule="evenodd" clip-rule="evenodd" fill="url(#SVGID_1_)" d="M123.2,149V72.7H80.4c-22.8,0-41.3,17.1-41.3,38.2
		c0,21.1,18.5,38.2,41.3,38.2h13.1v-16.6H80.5c-13.3,0-24-9.3-24-21.6c0-12.3,10.5-21.6,23.8-21.6h26.6V149H123.2z"/>
	<linearGradient id="SVGID_2_" gradientUnits="userSpaceOnUse" x1="177.7928" y1="73.4451" x2="177.7928" y2="143.9276">
		<stop  offset="0" style="stop-color:#828282"/>
		<stop  offset="1" style="stop-color:#686868"/>
	</linearGradient>
	<path fill-rule="evenodd" clip-rule="evenodd" fill="url(#SVGID_2_)" d="M177.8,69.8c-21.9,0-39.6,15.1-39.6,37.9V149h16.1v-42.2
		c0-14.7,12.6-23.2,23.5-23.2c10.9,0,23.3,8.5,23.3,23.2l0,42.2h16.3v-41.3C217.4,84.8,199.7,69.8,177.8,69.8z"/>
	<linearGradient id="SVGID_3_" gradientUnits="userSpaceOnUse" x1="270.1725" y1="73.4452" x2="270.1725" y2="143.9277">
		<stop  offset="0" style="stop-color:#828282"/>
		<stop  offset="0.9903" style="stop-color:#686868"/>
	</linearGradient>
	<path fill-rule="evenodd" clip-rule="evenodd" fill="url(#SVGID_3_)" d="M306.6,110.3c0-22-14.5-37.7-36.4-37.7h-36.3v16.6h37.2
		c14.1,0,19.9,9.9,19.9,20.9c0,11-6,22.3-20.1,22.3l-37.2,0v16.4H270C291.9,148.8,306.6,132.3,306.6,110.3z"/>
	<linearGradient id="SVGID_4_" gradientUnits="userSpaceOnUse" x1="570.6205" y1="73.4452" x2="570.6205" y2="143.9277">
		<stop  offset="0" style="stop-color:#828282"/>
		<stop  offset="0.9868" style="stop-color:#686868"/>
	</linearGradient>
	<path fill-rule="evenodd" clip-rule="evenodd" fill="url(#SVGID_4_)" d="M607.1,110.3c0-22-14.5-37.7-36.4-37.7h-36.3v16.6h37.2
		c14.1,0,19.9,9.9,19.9,20.9c0,11-6,22.3-20.1,22.3l-37.2,0v16.4h36.3C592.3,148.8,607.1,132.3,607.1,110.3z"/>
	<linearGradient id="SVGID_5_" gradientUnits="userSpaceOnUse" x1="357.7783" y1="73.4451" x2="357.7783" y2="143.9276">
		<stop  offset="0" style="stop-color:#828282"/>
		<stop  offset="1" style="stop-color:#686868"/>
	</linearGradient>
	<path fill-rule="evenodd" clip-rule="evenodd" fill="url(#SVGID_5_)" d="M382,123.2c7-3.8,10.5-10.9,10.5-22.9
		c0-21.2-11.2-27.7-33.1-27.7h-36.3v16.6h37.2c14.1,0,16.6,4.5,16.6,10.9c0,6.4-2,11.8-16.1,11.8l-37.2,0l0,15.2h36.3
		c0.3,0,0.7,0,1,0c7.2,0.8,12.8,6.9,12.8,14.4c0,2.4,0.4,4.6-0.6,6.6c0,0.3,1,0.6,1,0.8h15C389.1,149,391.8,132.7,382,123.2z"/>
	<linearGradient id="SVGID_6_" gradientUnits="userSpaceOnUse" x1="445.2198" y1="73.4452" x2="445.2198" y2="143.9275">
		<stop  offset="0" style="stop-color:#828282"/>
		<stop  offset="1" style="stop-color:#686868"/>
	</linearGradient>
	<path fill-rule="evenodd" clip-rule="evenodd" fill="url(#SVGID_6_)" d="M445.2,70.4c-20.8,0-37.7,17.6-37.7,39.3
		c0,21.7,16.9,39.3,37.7,39.3c20.8,0,37.7-17.6,37.7-39.3C482.9,88,466,70.4,445.2,70.4z M445.2,133.3c-12.5,0-22.6-10.5-22.6-23.5
		c0-13,10.1-23.5,22.6-23.5c12.5,0,22.6,10.5,22.6,23.5C467.8,122.7,457.7,133.3,445.2,133.3z"/>
	<linearGradient id="SVGID_7_" gradientUnits="userSpaceOnUse" x1="509.5486" y1="73.4451" x2="509.5486" y2="143.9276">
		<stop  offset="0" style="stop-color:#828282"/>
		<stop  offset="1" style="stop-color:#686868"/>
	</linearGradient>
	<rect x="501.3" y="72.7" fill-rule="evenodd" clip-rule="evenodd" fill="url(#SVGID_7_)" width="16.5" height="76.3"/>
</g>
<g>
	<g>
		<path fill-rule="evenodd" clip-rule="evenodd" fill="#686868" d="M39.8,111.4c0-21.1,18.5-38.2,41.3-38.2h42.1v-0.5H80.4
			c-22.8,0-41.3,17.1-41.3,38.2c0,12.1,6.1,22.8,15.6,29.8C45.6,133.7,39.8,123.1,39.8,111.4z"/>
		<rect x="106.8" y="89.8" fill-rule="evenodd" clip-rule="evenodd" fill="#686868" width="0.7" height="59.2"/>
		<path fill-rule="evenodd" clip-rule="evenodd" fill="#686868" d="M65.6,127.9c4.2,3.2,9.6,5.1,15.6,5.1h12.4v-0.5H80.5
			C74.8,132.4,69.7,130.7,65.6,127.9z"/>
	</g>
	<g>
		<path fill-rule="evenodd" clip-rule="evenodd" fill="#686868" d="M201.8,149l0-41.7c0-8.5-4.1-14.9-9.7-18.8
			c5.2,3.9,9,10.2,9,18.3l0,42.2H201.8z"/>
		<path fill-rule="evenodd" clip-rule="evenodd" fill="#686868" d="M138.9,108.2c0-22.8,17.7-37.9,39.6-37.9
			c9.4,0,17.9,2.8,24.7,7.7c-6.9-5.3-15.7-8.2-25.4-8.2c-21.9,0-39.6,15.1-39.6,37.9V149h0.7V108.2z"/>
	</g>
	<g>
		<path fill-rule="evenodd" clip-rule="evenodd" fill="#686868" d="M234.6,73.2h36.3c8.1,0,15.2,2.2,21,6
			c-5.8-4.2-13.2-6.5-21.7-6.5h-36.3v16.6h0.7V73.2z"/>
		<path fill-rule="evenodd" clip-rule="evenodd" fill="#686868" d="M234.4,132.9l37.2,0c14.1,0,20.1-11.3,20.1-22.3
			c0-7.1-2.4-13.7-7.9-17.5c5,3.9,7.2,10.2,7.2,17c0,11-6,22.3-20.1,22.3l-37.2,0v16.4h0.7V132.9z"/>
	</g>
	<g>
		<path fill-rule="evenodd" clip-rule="evenodd" fill="#686868" d="M534.8,132.9l37.2,0c14.1,0,20.1-11.3,20.1-22.3
			c0-7.1-2.4-13.7-7.9-17.5c5,3.9,7.2,10.2,7.2,17c0,11-6,22.3-20.1,22.3l-37.2,0v16.4h0.7V132.9z"/>
		<path fill-rule="evenodd" clip-rule="evenodd" fill="#686868" d="M535.1,73.2h36.3c8.1,0,15.2,2.2,21,6
			c-5.9-4.2-13.2-6.5-21.7-6.5h-36.3v16.6h0.7V73.2z"/>
	</g>
	<g>
		<path fill-rule="evenodd" clip-rule="evenodd" fill="#686868" d="M324.2,112.5l37.2,0c14.1,0,16.1-5.5,16.1-11.8
			c0-3.4-0.8-6.3-3.6-8.2c2.3,1.9,2.9,4.6,2.9,7.7c0,6.4-2,11.8-16.1,11.8l-37.2,0l0,15.2h0.7L324.2,112.5z"/>
		<path fill-rule="evenodd" clip-rule="evenodd" fill="#686868" d="M323.8,73.2h36.3c10.6,0,18.7,1.6,24.2,5.6
			c-5.5-4.4-13.9-6.1-24.9-6.1h-36.3v16.6h0.7V73.2z"/>
		<path fill-rule="evenodd" clip-rule="evenodd" fill="#686868" d="M374,148.9C374,149,374.1,149,374,148.9l0.1,0.1
			C374.1,149,374.1,149,374,148.9z"/>
		<path fill-rule="evenodd" clip-rule="evenodd" fill="#686868" d="M373.8,148.7c1-2,0.6-4.2,0.6-6.6c0-4.9-2.5-9.3-6.2-11.9
			c3.4,2.6,5.5,6.7,5.5,11.4c0,2.4,0.4,4.6-0.6,6.6C373.1,148.4,373.5,148.5,373.8,148.7C373.8,148.7,373.8,148.7,373.8,148.7z"/>
	</g>
	<g>
		<path fill-rule="evenodd" clip-rule="evenodd" fill="#686868" d="M468.5,110.3c0-8.2-4.1-15.5-10.2-19.7
			c5.8,4.3,9.5,11.3,9.5,19.2c0,13-10.1,23.5-22.6,23.5c-4.6,0-8.8-1.4-12.3-3.8c3.7,2.7,8.2,4.4,13,4.4
			C458.4,133.8,468.5,123.3,468.5,110.3z"/>
		<path fill-rule="evenodd" clip-rule="evenodd" fill="#686868" d="M408.2,110.3c0-21.7,16.9-39.3,37.7-39.3
			c7.7,0,14.8,2.4,20.8,6.5c-6.1-4.4-13.5-7-21.5-7c-20.8,0-37.7,17.6-37.7,39.3c0,13.7,6.7,25.7,16.9,32.8
			C414.6,135.4,408.2,123.6,408.2,110.3z"/>
	</g>
	<polygon fill-rule="evenodd" clip-rule="evenodd" fill="#686868" points="502,73.2 517.8,73.2 517.8,72.7 501.3,72.7 501.3,149 
		502,149 	"/>
</g>
</svg>
