<?xml version="1.0" encoding="utf-8"?>
<!-- Generator: Adobe Illustrator 18.1.1, SVG Export Plug-In . SVG Version: 6.00 Build 0)  -->
<!DOCTYPE svg PUBLIC "-//W3C//DTD SVG 1.1//EN" "http://www.w3.org/Graphics/SVG/1.1/DTD/svg11.dtd">
<svg version="1.1" id="Layer_3" xmlns="http://www.w3.org/2000/svg" xmlns:xlink="http://www.w3.org/1999/xlink" x="0px" y="0px"
	 viewBox="0 0 658 217" enable-background="new 0 0 658 217" xml:space="preserve">
<g>
	<path fill="#777777" d="M145.8,41.7c-6.9,0-14.3,0-21.3,0c0,28.9-0.1,47.6-0.1,76.5C115.3,90,106.2,71.3,97,41.7
		c-7.8,0-12.6,0-20.4,0c0,45.2,0,90.3,0,135.5c6.9-1,14.3-1.9,21.2-2.8c0-28.3,0-45.7,0.1-74c9.5,27.9,15.3,44.3,24.8,70.8
		c7.4-0.8,15.6-1.9,23-2.6C145.7,126.2,145.7,83.9,145.8,41.7"/>
	<path fill="#777777" d="M225.2,41.7c-19.7,0-39.2,0-58.9,0c-0.1,41.7-0.2,83.3-0.2,125c19.7-1.8,39.4-3.3,59.1-4.4
		c0-6.1,0-14.8,0-20.9c-12.8,0.8-25.1,1.6-37.9,2.5c0-11.2,0-20.5,0.1-31.7c9.3-0.2,19.2,0,28.8-0.2c0-6.1,0-14.9,0-21
		c-9.5,0.2-19.4,0.2-28.8,0.4c0-11.2,0-17.3,0.1-28.5c5.9-0.1,11.6-0.1,17.3-0.1c1,0,2,0,3,0c1,0,2,0,3,0c4.8,0,9.6,0,14.5,0
		C225.3,56.5,225.2,47.7,225.2,41.7"/>
	<path fill="#777777" d="M304.5,41.8c-21.6,0-43.9,0-65.6,0c0,6.1,0,14.8,0,20.8c0.9,0,1.9,0,2.8,0c2.8,0,5.7,0,8.5,0.1
		c2.8,0,5.7,0.1,8.5,0.1c0.7,0,1.5,0,2.2,0c0,33.6-0.1,64.3-0.1,97.8c6.9-0.3,14.4-0.5,21.3-0.7c0-33.4,0.1-63.9,0.1-97.3
		c7.3,0,14.9-0.1,22.2-0.1C304.5,56.6,304.5,47.7,304.5,41.8"/>
	<path fill="#777777" d="M377.4,41.7c-19.7,0-39.4,0-59.1,0c0,39.2,0,78.4,0,117.6c2.3,0,4.6,0,6.9,0c4.7,0,9.5,0,14.1,0.1
		c0-16.6,0-31.8,0-48.5c1.2,0,2.3,0,3.5,0c2.7,0,5.5,0,8.3,0c2.8,0,5.6,0,8.4,0c2.9,0,5.7,0,8.5,0.1c0-6,0-14.8,0-20.8
		c-2.6,0-5.3,0-8,0c-2.9,0-5.8,0-8.8,0c-2.9,0-5.8,0-8.7,0c-1.1,0-2.2,0-3.3,0c0-10.7,0-16.7,0-27.4c2.3,0,4.6,0,6.9,0
		c2.3,0,4.7,0,7,0c2.3,0,4.7,0,7,0c5.7,0,11.4,0,17.2,0C377.5,56.7,377.5,47.6,377.4,41.7"/>
	<path fill="#777777" d="M391.2,41.8c0.1,39.6-0.1,79.2-0.1,118.8c18.9,0.7,38.8,1.5,57.6,2.8c0-6.1,0-14.8,0-20.9
		c-11.9-0.7-24.4-1.5-36.3-2c-0.1-33.9,0.1-64.7,0.1-98.6C405.6,41.8,398.2,41.8,391.2,41.8"/>
	<path fill="#777777" d="M466.2,41.8c0.1,40.9,0.2,81.9,0.2,122.8c6.9,0.5,14.1,1.1,21,1.7c0-41.5,0.1-83,0-124.6
		C480.6,41.8,473.2,41.8,466.2,41.8"/>
	<path fill="#777777" d="M505.7,41.8c8.5,20.7,16.3,41.5,24.9,63.4c-9,21.1-18.1,42.1-27.1,62.4c7.4,0.7,15.1,1.8,22.5,2.6
		c5.3-13,10.2-23.1,15.5-36.5c5.3,14.3,10.1,25.3,15.5,40c7.4,1,17,2.3,24.4,3.4c-9-24-18.8-48.9-27.8-71.6
		c9-21.3,18.1-41.6,27.5-63.8c-7.7,0-15.6,0-23.2,0c-5.8,13.7-9.7,22.6-15.2,35.7c-5.1-13.6-8.6-22.4-13.7-35.7
		C521.3,41.8,513.4,41.8,505.7,41.8"/>
</g>
</svg>
