<?xml version="1.0" encoding="utf-8"?>
<!-- Generator: Adobe Illustrator 19.1.0, SVG Export Plug-In . SVG Version: 6.00 Build 0)  -->
<svg version="1.1" id="Layer_1" xmlns="http://www.w3.org/2000/svg" xmlns:xlink="http://www.w3.org/1999/xlink" x="0px" y="0px"
	 width="10516.5px" height="7302.9px" viewBox="0 0 10516.5 7302.9" enable-background="new 0 0 10516.5 7302.9"
	 xml:space="preserve">
<circle fill="#FCFD37" cx="5258.3" cy="2350.1" r="1669.9"/>
<polygon fill="#D7DDDC" points="4442,3174.8 4075.5,3467.9 4465.1,4310.8 6287.7,4201.5 6716.3,3761.7 6402.8,3496 6066.5,3174.8 
	"/>
<g>
	<g>
		<polygon id="triangle36_199_" fill="#85BCBC" points="6272.7,5037.7 6541.4,4274.4 6750.4,4819.6 		"/>
		<polygon id="triangle36_198_" fill="#29545F" points="6750.4,5401.2 6750.4,4819.6 6272.7,5037.7 		"/>
		<polygon id="triangle36_197_" fill="#569BAC" points="7257.9,5292.1 6750.4,4819.6 6750.4,5401.2 		"/>
		<polygon id="triangle36_196_" fill="#336778" points="7287.8,4746.9 6750.4,4819.6 7257.9,5292.1 		"/>
		<polygon id="triangle36_195_" fill="#78B6B7" points="6923.5,3937.4 7287.8,4746.9 6750.4,4819.6 		"/>
		<polygon id="triangle36_194_" fill="#9EC2C1" points="6923.5,3937.4 6541.4,4274.4 6750.4,4819.6 		"/>
		<polygon id="triangle36_191_" fill="#75B5B8" points="5974.1,4528.8 6541.4,4274.4 6272.7,5037.7 		"/>
		<polygon id="triangle36_185_" fill="#8DBDBA" points="5974.1,4528.8 6063.7,3874.2 6541.4,4274.4 		"/>
		<polygon id="triangle36_184_" fill="#73B4B7" points="5854.7,5183.1 5974.1,4528.8 6272.7,5037.7 		"/>
		<polygon id="triangle36_183_" fill="#29545F" points="6183.1,5837.4 6272.7,5037.7 6750.4,5401.2 		"/>
		<polygon id="triangle36_182_" fill="#02303A" points="6183.1,5837.4 6272.7,5037.7 5854.7,5183.1 		"/>
		<polygon id="triangle36_181_" fill="#00303C" points="6780.2,6164.5 6750.4,5401.2 6183.1,5837.4 		"/>
		<polygon id="triangle36_180_" fill="#00242D" points="7347.5,5982.8 6750.4,5401.2 6780.2,6164.5 		"/>
		<polygon id="triangle36_179_" fill="#29545F" points="7347.5,5982.8 7257.9,5292.1 6750.4,5401.2 		"/>
		<polygon id="triangle36_178_" fill="#00303C" points="7944.1,6347.6 7257.9,5292.1 7347.5,5982.8 		"/>
		<polygon id="triangle36_177_" fill="#29545F" points="7732.9,5019.5 7257.9,5292.1 7944.1,6347.6 		"/>
		<polygon id="triangle36_176_" fill="#8DBDBA" points="7732.9,5019.5 7287.8,4746.9 7257.9,5292.1 		"/>
		<polygon id="triangle36_175_" fill="#6CAEB4" points="7543.3,4456.1 7287.8,4746.9 7732.9,5019.5 		"/>
		<polygon id="triangle36_174_" fill="#78B6B7" points="7543.3,4456.1 6923.5,3937.4 7287.8,4746.9 		"/>
		<polygon id="triangle36_171_" fill="#8DBDBA" points="5675.6,4274.4 6063.7,3874.2 5974.1,4528.8 		"/>
		<polygon id="triangle36_170_" fill="#63AAB1" points="5698,4746.9 5974.1,4528.8 5854.7,5183.1 		"/>
		<polygon id="triangle36_169_" fill="#8DBDBA" points="5698,4746.9 5675.6,4274.4 5974.1,4528.8 		"/>
		<polygon id="triangle36_168_" fill="#00242D" points="5675.6,5692 5854.7,5183.1 6183.1,5837.4 		"/>
		<polygon fill="#00303C" points="5833.2,6347.6 5675.6,5692 6183.1,5837.4 5833.2,6347.6 		"/>
		<polygon id="triangle36_167_" fill="#00242D" points="6601.1,6347.6 6183.1,5837.4 6780.2,6164.5 		"/>
		<polygon fill="#00181E" points="5833.2,6347.6 6183.1,5837.4 6601.1,6347.6 6580.9,6347.6 		"/>
		<polygon id="triangle36_166_" fill="#00303C" points="7228,6347.6 7347.5,5982.8 6780.2,6164.5 		"/>
		<polygon id="triangle36_165_" fill="#00181E" points="7228,6347.6 6780.2,6164.5 6601.1,6347.6 		"/>
		<polygon fill="#00181E" points="7944.1,6347.6 7944.1,6347.6 7347.5,5982.8 7944.1,6347.6 		"/>
		<polygon fill="#00242D" points="7944.1,6347.6 7236.9,6347.6 7228,6347.6 7347.5,5982.8 		"/>
		<polygon id="triangle36_162_" fill="#559CAA" points="7922.4,4274.4 7543.3,4456.1 7732.9,5019.5 		"/>
		<polygon id="triangle36_161_" fill="#80BBB8" points="5268.4,4456.1 5675.6,4274.4 5698,4746.9 		"/>
		<polygon id="triangle36_160_" fill="#78B6B7" points="5285.7,5085.8 5268.4,4456.1 5698,4746.9 		"/>
		<polygon id="triangle36_159_" fill="#00303C" points="5541.2,5401.2 5854.7,5183.1 5675.6,5692 		"/>
		<polygon id="triangle36_158_" fill="#549DAC" points="5541.2,5401.2 5698,4746.9 5854.7,5183.1 		"/>
		<polygon id="triangle36_157_" fill="#4C95A7" points="5541.2,5401.2 5698,4746.9 5285.7,5085.8 		"/>
		<polygon id="triangle36_156_" fill="#00303C" points="5306.9,6055.4 5541.2,5401.2 5675.6,5692 		"/>
		<polygon fill="#00242D" points="5833.2,6347.6 5833.2,6347.6 5306.9,6055.4 5675.6,5692 		"/>
		<polygon fill="#00181E" points="5833.2,6347.6 5415.2,6347.6 5306.9,6055.4 		"/>
		<polygon fill="#29545F" points="5083.1,5514.3 5541.2,5401.2 5306.9,6055.4 		"/>
		<polygon fill="#00303C" points="5285.7,5085.8 5541.2,5401.2 5083.1,5514.3 		"/>
		<polygon fill="#3E7899" points="5285.7,5085.8 5285.7,5085.8 5541.2,5401.2 5285.7,5085.8 		"/>
		<polygon fill="#69B1B3" points="5268.4,4456.1 5285.7,5085.8 5285.7,5085.8 		"/>
		<polygon id="triangle36_155_" fill="#ACC4C2" points="5268.3,3874.6 5675.6,4274.4 5268.4,4456.1 		"/>
	</g>
	<g>
		<polygon id="triangle36_154_" fill="#85BCBC" points="9497.1,5037.7 9228.4,4456.1 9019.4,4819.6 		"/>
		<polygon id="triangle36_153_" fill="#29545F" points="9019.4,5401.2 9019.4,4819.6 9497.1,5037.7 		"/>
		<polygon id="triangle36_152_" fill="#569BAC" points="8511.8,5292.1 9019.4,4819.6 9019.4,5401.2 		"/>
		<polygon id="triangle36_151_" fill="#336778" points="8482,4746.9 9019.4,4819.6 8511.8,5292.1 		"/>
		<polygon id="triangle36_150_" fill="#B1C5C4" points="8691,4092.7 8482,4746.9 9019.4,4819.6 		"/>
		<polygon id="triangle36_149_" fill="#9EC2C1" points="8691,4092.7 9228.4,4456.1 9019.4,4819.6 		"/>
		<polygon id="triangle36_148_" fill="#75B5B8" points="9795.6,4528.8 9228.4,4456.1 9497.1,5037.7 		"/>
		<polygon id="triangle36_147_" fill="#B1C5C4" points="9795.6,4528.8 9481.9,4020 9228.4,4456.1 		"/>
		<polygon id="triangle36_146_" fill="#73B4B7" points="9915.1,5183.1 9795.6,4528.8 9497.1,5037.7 		"/>
		<polygon id="triangle36_145_" fill="#29545F" points="9586.6,5837.4 9497.1,5037.7 9019.4,5401.2 		"/>
		<polygon id="triangle36_144_" fill="#00303C" points="9586.6,5837.4 9497.1,5037.7 9915.1,5183.1 		"/>
		<polygon id="triangle36_143_" fill="#00303C" points="8989.5,6164.5 9019.4,5401.2 9586.6,5837.4 		"/>
		<polygon id="triangle36_142_" fill="#00242D" points="8422.3,5982.8 9019.4,5401.2 8989.5,6164.5 		"/>
		<polygon id="triangle36_141_" fill="#29545F" points="8422.3,5982.8 8511.8,5292.1 9019.4,5401.2 		"/>
		<polygon id="triangle36_140_" fill="#00303C" points="8093.9,5692 8511.8,5292.1 8422.3,5982.8 		"/>
		<polygon id="triangle36_139_" fill="#00242D" points="7732.9,5019.5 8511.8,5292.1 8093.9,5692 		"/>
		<polygon id="triangle36_138_" fill="#29545F" points="7732.9,5019.5 8482,4746.9 8511.8,5292.1 		"/>
		<polygon id="triangle36_137_" fill="#6CAEB4" points="7922.4,4274.4 8482,4746.9 7732.9,5019.5 		"/>
		<polygon id="triangle36_136_" fill="#A0C2C1" points="7922.4,4274.4 8691,4092.7 8482,4746.9 		"/>
		<polygon id="triangle36_135_" fill="#A9C4C2" points="10094.2,4274.4 9481.9,4020 9795.6,4528.8 		"/>
		<polygon id="triangle36_134_" fill="#63AAB1" points="10071.8,4746.9 9795.6,4528.8 9915.1,5183.1 		"/>
		<polygon id="triangle36_133_" fill="#8DBDBA" points="10071.8,4746.9 10094.2,4274.4 9795.6,4528.8 		"/>
		<polygon id="triangle36_132_" fill="#00242D" points="10094.2,5692 9915.1,5183.1 9586.6,5837.4 		"/>
		<polygon fill="#00303C" points="9932.5,6347.6 10094.2,5692 9586.6,5837.4 9875.1,6347.6 		"/>
		<polygon id="triangle36_131_" fill="#00242D" points="9168.7,6347.6 9586.6,5837.4 8989.5,6164.5 		"/>
		<polygon fill="#00181E" points="9875.1,6347.6 9586.6,5837.4 9168.7,6347.6 9188.9,6347.6 		"/>
		<polygon id="triangle36_130_" fill="#00303C" points="8541.7,6347.6 8422.3,5982.8 8989.5,6164.5 		"/>
		<polygon id="triangle36_129_" fill="#00181E" points="8541.7,6347.6 8989.5,6164.5 9168.7,6347.6 		"/>
		<polygon fill="#00181E" points="7944.1,6347.6 7944.1,6347.6 8422.3,5982.8 8093.9,5692 		"/>
		<polygon fill="#00242D" points="7944.1,6347.6 8532.8,6347.6 8541.7,6347.6 8422.3,5982.8 		"/>
		<polygon id="triangle36_128_" fill="#00242D" points="7944.1,6347.6 7732.9,5019.5 8093.9,5692 		"/>
		<polygon id="triangle36_125_" fill="#80BBB8" points="10392.7,4347.1 10094.2,4274.4 10071.8,4746.9 		"/>
		<polygon id="triangle36_124_" fill="#78B6B7" points="10362.9,5037.7 10392.7,4347.1 10071.8,4746.9 		"/>
		<polygon id="triangle36_123_" fill="#00303C" points="10228.5,5401.2 9915.1,5183.1 10094.2,5692 		"/>
		<polygon id="triangle36_107_" fill="#549DAC" points="10228.5,5401.2 10071.8,4746.9 9915.1,5183.1 		"/>
		<polygon id="triangle36_106_" fill="#4C95A7" points="10228.5,5401.2 10071.8,4746.9 10362.9,5037.7 		"/>
		<polygon id="triangle36_105_" fill="#00303C" points="10362.9,6055.4 10228.5,5401.2 10094.2,5692 		"/>
		<polygon fill="#00242D" points="9932.5,6347.6 10002.2,6347.6 10362.9,6055.4 10094.2,5692 		"/>
		<polygon fill="#00181E" points="10002.2,6347.6 10382.9,6347.6 10362.9,6055.4 		"/>
		<polygon fill="#00303C" points="10516.5,6347.6 10362.9,6055.4 10382.9,6347.6 10516.5,6347.6 		"/>
		<polygon fill="#29545F" points="10516.5,5740.7 10228.5,5401.2 10362.9,6055.4 10516.5,5819.5 		"/>
		<polygon fill="#00181E" points="10516.5,5819.5 10362.9,6055.4 10516.5,6347.6 		"/>
		<polygon fill="#00303C" points="10516.5,5255.1 10228.5,5401.2 10516.5,5740.7 		"/>
		<polygon fill="#3E7899" points="10516.5,5060.6 10362.9,5037.7 10228.5,5401.2 10516.5,5255.1 		"/>
		<polygon fill="#69B1B3" points="10516.5,4477.4 10362.9,5037.7 10516.5,5060.6 		"/>
		<polygon fill="#61A9B0" points="10516.5,4347.1 10392.7,4347.1 10362.9,5037.7 10516.5,4477.4 		"/>
		<polygon fill="#A6C4C1" points="10516.5,4035 10516.5,3874.6 10392.7,4347.1 10516.5,4347.1 		"/>
		<polygon id="triangle36_104_" fill="#ACC4C2" points="10516.5,3874.6 10094.2,4274.4 10392.7,4347.1 		"/>
	</g>
	<g>
		<polygon id="triangle36_68_" fill="#85BCBC" points="1044.8,5037.7 1313.5,4456.1 1522.5,4819.6 		"/>
		<polygon id="triangle36_67_" fill="#29545F" points="1522.5,5401.2 1522.5,4819.6 1044.8,5037.7 		"/>
		<polygon id="triangle36_66_" fill="#569BAC" points="2030,5292.1 1522.5,4819.6 1522.5,5401.2 		"/>
		<polygon id="triangle36_65_" fill="#336778" points="2059.9,4746.9 1522.5,4819.6 2030,5292.1 		"/>
		<polygon id="triangle36_64_" fill="#A6C4C2" points="1850.9,4092.7 2059.9,4746.9 1522.5,4819.6 		"/>
		<polygon id="triangle36_63_" fill="#9EC2C1" points="1850.9,4092.7 1313.5,4456.1 1522.5,4819.6 		"/>
		<polygon id="triangle36_62_" fill="#75B5B8" points="746.2,4528.8 1313.5,4456.1 1044.8,5037.7 		"/>
		<polygon id="triangle36_61_" fill="#B1C5C4" points="746.2,4528.8 1029.9,4020 1313.5,4456.1 		"/>
		<polygon id="triangle36_60_" fill="#73B4B7" points="626.8,5183.1 746.2,4528.8 1044.8,5037.7 		"/>
		<polygon id="triangle36_59_" fill="#29545F" points="955.2,5837.4 1044.8,5037.7 1522.5,5401.2 		"/>
		<polygon id="triangle36_58_" fill="#00303C" points="955.2,5837.4 1044.8,5037.7 626.8,5183.1 		"/>
		<polygon id="triangle36_57_" fill="#00303C" points="1552.4,6164.5 1522.5,5401.2 955.2,5837.4 		"/>
		<polygon id="triangle36_56_" fill="#00242D" points="2119.6,5982.8 1522.5,5401.2 1552.4,6164.5 		"/>
		<polygon id="triangle36_55_" fill="#29545F" points="2119.6,5982.8 2030,5292.1 1522.5,5401.2 		"/>
		<polygon id="triangle36_54_" fill="#00303C" points="2718.4,6347.6 2030,5292.1 2119.6,5982.8 		"/>
		<polygon id="triangle36_53_" fill="#29545F" points="2507.6,5019.5 2030,5292.1 2718.4,6347.6 		"/>
		<polygon id="triangle36_52_" fill="#8DBDBA" points="2507.6,5019.5 2059.9,4746.9 2030,5292.1 		"/>
		<polygon id="triangle36_51_" fill="#6CAEB4" points="2315.5,4456.1 2059.9,4746.9 2507.6,5019.5 		"/>
		<polygon id="triangle36_50_" fill="#A0C2C1" points="2315.5,4456.1 1850.9,4092.7 2059.9,4746.9 		"/>
		<polygon id="triangle36_49_" fill="#A9C4C2" points="447.7,4274.4 1029.9,4020 746.2,4528.8 		"/>
		<polygon id="triangle36_48_" fill="#63AAB1" points="470.1,4746.9 746.2,4528.8 626.8,5183.1 		"/>
		<polygon id="triangle36_47_" fill="#8DBDBA" points="470.1,4746.9 447.7,4274.4 746.2,4528.8 		"/>
		<polygon id="triangle36_46_" fill="#00242D" points="447.7,5692 626.8,5183.1 955.2,5837.4 		"/>
		<polygon fill="#00303C" points="605.3,6347.6 447.7,5692 955.2,5837.4 605.3,6347.6 		"/>
		<polygon id="triangle36_45_" fill="#00242D" points="1368.2,6347.6 955.2,5837.4 1552.4,6164.5 		"/>
		<polygon fill="#00181E" points="605.3,6347.6 955.2,5837.4 1368.2,6347.6 1368.2,6347.6 		"/>
		<polygon id="triangle36_44_" fill="#00303C" points="2000.2,6347.6 2119.6,5982.8 1552.4,6164.5 		"/>
		<polygon id="triangle36_43_" fill="#00181E" points="2000.2,6347.6 1552.4,6164.5 1368.2,6347.6 		"/>
		<polygon fill="#00181E" points="2718.4,6347.6 2718.4,6347.6 2119.6,5982.8 2718.4,6347.6 		"/>
		<polygon fill="#00242D" points="2718.4,6347.6 2009.1,6347.6 2000.2,6347.6 2119.6,5982.8 		"/>
		<polygon id="triangle36_42_" fill="#559CAA" points="2698,4274.4 2315.5,4456.1 2507.6,5019.5 		"/>
		<polygon id="triangle36_41_" fill="#80BBB8" points="149.1,4347.1 447.7,4274.4 470.1,4746.9 		"/>
		<polygon id="triangle36_40_" fill="#78B6B7" points="179,5037.7 149.1,4347.1 470.1,4746.9 		"/>
		<polygon id="triangle36_39_" fill="#00303C" points="313.4,5401.2 626.8,5183.1 447.7,5692 		"/>
		<polygon id="triangle36_38_" fill="#549DAC" points="313.4,5401.2 470.1,4746.9 626.8,5183.1 		"/>
		<polygon id="triangle36_37_" fill="#4C95A7" points="313.4,5401.2 470.1,4746.9 179,5037.7 		"/>
		<polygon id="triangle36_36_" fill="#00303C" points="179,6055.4 313.4,5401.2 447.7,5692 		"/>
		<polygon fill="#00242D" points="605.3,6347.6 605.3,6347.6 179,6055.4 447.7,5692 		"/>
		<polygon fill="#00181E" points="605.3,6347.6 159,6347.6 179,6055.4 		"/>
		<polygon fill="#00303C" points="0,6347.6 179,6055.4 159,6347.6 0,6347.6 		"/>
		<polygon fill="#29545F" points="0,5740.7 313.4,5401.2 179,6055.4 0,5819.5 		"/>
		<polygon fill="#00181E" points="0,5819.5 179,6055.4 0,6347.6 		"/>
		<polygon fill="#00303C" points="0,5255.1 313.4,5401.2 0,5740.7 		"/>
		<polygon fill="#3E7899" points="0,5060.6 179,5037.7 313.4,5401.2 0,5255.1 		"/>
		<polygon fill="#69B1B3" points="0,4477.4 179,5037.7 0,5060.6 		"/>
		<polygon fill="#61A9B0" points="0,4347.1 149.1,4347.1 179,5037.7 0,4477.4 		"/>
		<polygon fill="#A6C4C1" points="0,4035 0,3874.6 149.1,4347.1 0,4347.1 		"/>
		<polygon id="triangle36_35_" fill="#ACC4C2" points="0,3874.6 447.7,4274.4 149.1,4347.1 		"/>
	</g>
	<g>
		<polygon id="triangle36_34_" fill="#85BCBC" points="4274.5,5037.7 4005.8,4274.4 3796.9,4819.6 		"/>
		<polygon id="triangle36_33_" fill="#29545F" points="3796.9,5401.2 3796.9,4819.6 4274.5,5037.7 		"/>
		<polygon id="triangle36_32_" fill="#569BAC" points="3289.3,5292.1 3796.9,4819.6 3796.9,5401.2 		"/>
		<polygon id="triangle36_31_" fill="#336778" points="3259.4,4746.9 3796.9,4819.6 3289.3,5292.1 		"/>
		<polygon id="triangle36_30_" fill="#85BCBC" points="3369.5,3874.6 3259.4,4746.9 3796.9,4819.6 		"/>
		<polygon id="triangle36_29_" fill="#78B6B7" points="3369.5,3874.6 4005.8,4274.4 3796.9,4819.6 		"/>
		<polygon id="triangle36_28_" fill="#75B5B8" points="4573.1,4528.8 4005.8,4274.4 4274.5,5037.7 		"/>
		<polygon id="triangle36_27_" fill="#8DBDBA" points="4573.1,4528.8 4480,3874.2 4005.8,4274.4 		"/>
		<polygon id="triangle36_26_" fill="#73B4B7" points="4692.5,5183.1 4573.1,4528.8 4274.5,5037.7 		"/>
		<polygon id="triangle36_25_" fill="#29545F" points="4364.1,5837.4 4274.5,5037.7 3796.9,5401.2 		"/>
		<polygon id="triangle36_24_" fill="#00303C" points="4364.1,5837.4 4274.5,5037.7 4692.5,5183.1 		"/>
		<polygon id="triangle36_23_" fill="#00303C" points="3767,6164.5 3796.9,5401.2 4364.1,5837.4 		"/>
		<polygon id="triangle36_22_" fill="#00242D" points="3199.7,5982.8 3796.9,5401.2 3767,6164.5 		"/>
		<polygon id="triangle36_21_" fill="#29545F" points="3199.7,5982.8 3289.3,5292.1 3796.9,5401.2 		"/>
		<polygon id="triangle36_20_" fill="#00303C" points="2871.3,5692 3289.3,5292.1 3199.7,5982.8 		"/>
		<polygon id="triangle36_19_" fill="#00242D" points="2507.6,5019.5 3289.3,5292.1 2871.3,5692 		"/>
		<polygon id="triangle36_18_" fill="#29545F" points="2507.6,5019.5 3259.4,4746.9 3289.3,5292.1 		"/>
		<polygon id="triangle36_17_" fill="#6CAEB4" points="2698,4274.4 3259.4,4746.9 2507.6,5019.5 		"/>
		<polygon id="triangle36_16_" fill="#78B6B7" points="2698,4274.4 3369.5,3874.6 3259.4,4746.9 		"/>
		<polygon id="triangle36_15_" fill="#8DBDBA" points="4867.9,4262.3 4480,3874.2 4573.1,4528.8 		"/>
		<polygon id="triangle36_14_" fill="#63AAB1" points="4849.3,4746.9 4573.1,4528.8 4692.5,5183.1 		"/>
		<polygon id="triangle36_13_" fill="#8DBDBA" points="4849.3,4746.9 4867.9,4262.3 4573.1,4528.8 		"/>
		<polygon id="triangle36_12_" fill="#00242D" points="4871.6,5692 4692.5,5183.1 4364.1,5837.4 		"/>
		<polygon fill="#00303C" points="4714.1,6347.6 4871.6,5692 4364.1,5837.4 4714.1,6347.6 		"/>
		<polygon id="triangle36_11_" fill="#00242D" points="3946.1,6347.6 4364.1,5837.4 3767,6164.5 		"/>
		<polygon fill="#00181E" points="4714.1,6347.6 4364.1,5837.4 3946.1,6347.6 3966.3,6347.6 		"/>
		<polygon id="triangle36_10_" fill="#00303C" points="3319.2,6347.6 3199.7,5982.8 3767,6164.5 		"/>
		<polygon id="triangle36_9_" fill="#00181E" points="3319.2,6347.6 3767,6164.5 3946.1,6347.6 		"/>
		<polygon fill="#00181E" points="2718.4,6347.6 2718.4,6347.6 3199.7,5982.8 2871.3,5692 		"/>
		<polygon fill="#00242D" points="2718.4,6347.6 3310.3,6347.6 3319.2,6347.6 3199.7,5982.8 		"/>
		<polygon id="triangle36_8_" fill="#00242D" points="2718.4,6347.6 2507.6,5019.5 2871.3,5692 		"/>
		<polygon id="triangle36_7_" fill="#80BBB8" points="5268.4,4456.1 4867.9,4262.3 4849.3,4746.9 		"/>
		<polygon id="triangle36_6_" fill="#78B6B7" points="5285.7,5085.8 5268.4,4456.1 4849.3,4746.9 		"/>
		<polygon id="triangle36_5_" fill="#00303C" points="5083.1,5514.3 4692.5,5183.1 4871.6,5692 		"/>
		<polygon id="triangle36_4_" fill="#549DAC" points="5083.1,5514.3 4849.3,4746.9 4692.5,5183.1 		"/>
		<polygon id="triangle36_3_" fill="#4C95A7" points="5083.1,5514.3 4849.3,4746.9 5285.7,5085.8 		"/>
		<polygon id="triangle36_2_" fill="#00303C" points="5306.9,6055.4 5083.1,5514.3 4871.6,5692 		"/>
		<polygon fill="#00242D" points="4714.1,6347.6 4714.1,6347.6 5306.9,6055.4 4871.6,5692 		"/>
		<polygon fill="#00181E" points="4714.1,6347.6 5415.2,6347.6 5306.9,6055.4 		"/>
		<polygon id="triangle36_1_" fill="#80BBB8" points="5268.3,3874.6 4867.9,4262.3 5268.4,4456.1 		"/>
	</g>
</g>
<polygon fill="#B1C5C4" points="3369.5,3874.6 4075.5,3467.9 4005.8,4274.4 "/>
<polygon fill="#A0C2C1" points="4075.5,3467.9 4480,3874.2 4005.8,4274.4 "/>
<polygon fill="#B1C5C4" points="4867.9,4262.3 5008.4,3467.9 4480,3874.2 "/>
<polygon fill="#A0C2C1" points="5268.3,3874.6 5008.4,3467.9 4867.9,4262.3 "/>
<polygon fill="#B1C5C4" points="6063.7,3874.2 5698,3467.9 5675.6,4274.4 "/>
<polygon fill="#A0C2C1" points="5268.3,3874.6 5698,3467.9 5675.6,4274.4 "/>
<polygon fill="#A0C2C1" points="6402.8,3496 6541.4,4274.4 6063.7,3874.2 "/>
<polygon fill="#B1C5C4" points="6923.5,3937.4 6402.8,3496 6541.4,4274.4 "/>
<rect y="6347.6" fill="#00181E" width="10516.5" height="955.3"/>
<rect x="10439.7" y="7980.7" fill="#00181E" width="10730.2" height="955.3"/>
</svg>
